<svg height="512" viewBox="0 0 64 64" width="512" xmlns="http://www.w3.org/2000/svg"><g id="Flat"><g id="Color_copy" data-name="Color copy"><g><g><g fill="#aae1f9"><path d="m32 52a1 1 0 0 1 -.788-1.614 14.148 14.148 0 0 1 18.217-3.668l3.306 1.86a6.152 6.152 0 0 0 4.95.473 1 1 0 0 1 .632 1.9 8.152 8.152 0 0 1 -6.562-.628l-3.307-1.86a12.161 12.161 0 0 0 -15.658 3.153 1 1 0 0 1 -.79.384z"/><path d="m32 52a1 1 0 0 1 -.79-.386 12.162 12.162 0 0 0 -15.658-3.153l-3.307 1.86a8.147 8.147 0 0 1 -6.562.628 1 1 0 0 1 .632-1.9 6.14 6.14 0 0 0 4.95-.473l3.306-1.86a14.149 14.149 0 0 1 18.217 3.668 1 1 0 0 1 -.788 1.616z"/><path d="m32 52a1 1 0 0 1 -.833-.445l-.558-.837a14.219 14.219 0 0 0 -18.162-4.818 3.242 3.242 0 0 1 -4.342-1.447 1 1 0 0 1 1.79-.9 1.235 1.235 0 0 0 1.658.553 16.222 16.222 0 0 1 20.721 5.5l.558.837a1 1 0 0 1 -.832 1.557z"/><path d="m32 52a1 1 0 0 1 -.831-1.555l.558-.837a16.225 16.225 0 0 1 20.721-5.5 1.237 1.237 0 0 0 1.658-.553 1 1 0 0 1 1.79.9 3.241 3.241 0 0 1 -4.343 1.445 14.22 14.22 0 0 0 -18.163 4.818l-.558.837a1 1 0 0 1 -.832.445z"/></g><path d="m40 38a1 1 0 0 1 -.707-1.707l5-5a1 1 0 0 1 1.414 1.414l-5 5a1 1 0 0 1 -.707.293z" fill="#f9e109"/><path d="m23 38a1 1 0 0 1 -.759-.349l-6-7a1 1 0 0 1 1.518-1.3l6 7a1 1 0 0 1 -.759 1.649z" fill="#f9e109"/><path d="m24 32a1 1 0 0 1 -.9-.553l-1-2a1 1 0 0 1 1.79-.894l1 2a1 1 0 0 1 -.89 1.447z" fill="#f9e109"/><path d="m40 32a1 1 0 0 1 -.894-1.447l1-2a1 1 0 0 1 1.79.894l-1 2a1 1 0 0 1 -.896.553z" fill="#f9e109"/></g><path d="m58 57-26-4a5.518 5.518 0 0 1 6.807-5.366l13.235 3.176a7.975 7.975 0 0 1 5.958 6.19z" fill="#57b7eb"/><path d="m6 57 26-4a5.518 5.518 0 0 0 -6.807-5.366l-13.235 3.176a7.975 7.975 0 0 0 -5.958 6.19z" fill="#57b7eb"/><path d="m51.042 52.81-13.235-3.176a5.507 5.507 0 0 0 -5.619 1.949 5.537 5.537 0 0 0 -.188 1.417l24.155 3.716a7.972 7.972 0 0 0 -5.113-3.906z" fill="#4891d3"/><path d="m26.193 49.634-13.235 3.176a7.972 7.972 0 0 0 -5.113 3.906l24.155-3.716a5.537 5.537 0 0 0 -.188-1.417 5.507 5.507 0 0 0 -5.619-1.949z" fill="#4891d3"/><g><path d="m32 17v20h4v-16h8v-4z" fill="#fcbc04"/><path d="m44 17v-4h-8v-6h-4v10z" fill="#f9e109"/><path d="m32 7h-4v6h-8v4h12z" fill="#fcbc04"/><path d="m20 17v4h8v16h4v-20z" fill="#e59730"/></g><path d="m3 57v4l23.043-3.414a3.451 3.451 0 0 1 3.957 3.414h4a3.451 3.451 0 0 1 3.957-3.414l23.043 3.414v-4l-29-5z" fill="#f9e109"/><g fill="#f9e109"><path d="m32 11-4-4h8z"/><path d="m32 33-4 4h8z"/><path d="m40 17 4 4v-8z"/><path d="m24 17-4 4v-8z"/></g><path d="m3 59v2l23.043-3.414a3.451 3.451 0 0 1 3.957 3.414h4a3.451 3.451 0 0 1 3.957-3.414l23.043 3.414v-2l-29-5z" fill="#fcbc04"/></g></g></g></svg>