<?xml version="1.0" encoding="UTF-8" standalone="no"?>
<!-- Created with Inkscape (http://www.inkscape.org/) -->

<svg
   xmlns:dc="http://purl.org/dc/elements/1.1/"
   xmlns:cc="http://creativecommons.org/ns#"
   xmlns:rdf="http://www.w3.org/1999/02/22-rdf-syntax-ns#"
   xmlns:svg="http://www.w3.org/2000/svg"
   xmlns="http://www.w3.org/2000/svg"
   xmlns:sodipodi="http://sodipodi.sourceforge.net/DTD/sodipodi-0.dtd"
   xmlns:inkscape="http://www.inkscape.org/namespaces/inkscape"
   width="407.65994"
   height="475.70609"
   id="svg2"
   version="1.1"
   inkscape:version="0.48.4 r9939"
   sodipodi:docname="the_body_and_blood_of_jesus.svg">
  <defs
     id="defs4">
    <linearGradient
       id="linearGradient4001">
      <stop
         style="stop-color:#c83771;stop-opacity:1;"
         offset="0"
         id="stop4003" />
      <stop
         style="stop-color:#ffffff;stop-opacity:1;"
         offset="1"
         id="stop4005" />
    </linearGradient>
  </defs>
  <sodipodi:namedview
     id="base"
     pagecolor="#ffffff"
     bordercolor="#666666"
     borderopacity="1.0"
     inkscape:pageopacity="0.0"
     inkscape:pageshadow="2"
     inkscape:zoom="1.2033783"
     inkscape:cx="204.78064"
     inkscape:cy="220.42052"
     inkscape:document-units="px"
     inkscape:current-layer="layer1"
     showgrid="false"
     inkscape:window-width="1280"
     inkscape:window-height="961"
     inkscape:window-x="-8"
     inkscape:window-y="-8"
     inkscape:window-maximized="1"
     showguides="true"
     inkscape:guide-bbox="true"
     inkscape:snap-bbox="true"
     fit-margin-top="0"
     fit-margin-left="0"
     fit-margin-right="0"
     fit-margin-bottom="0" />
  <metadata
     id="metadata7">
    <rdf:RDF>
      <cc:Work
         rdf:about="">
        <dc:format>image/svg+xml</dc:format>
        <dc:type
           rdf:resource="http://purl.org/dc/dcmitype/StillImage" />
        <dc:title></dc:title>
      </cc:Work>
    </rdf:RDF>
  </metadata>
  <g
     inkscape:label="Livello 1"
     inkscape:groupmode="layer"
     id="layer1"
     transform="translate(-182.02755,-199.59083)">
    <text
       xml:space="preserve"
       style="font-size:40px;font-style:normal;font-weight:normal;line-height:125%;letter-spacing:0px;word-spacing:0px;fill:#000000;fill-opacity:1;stroke:none;font-family:Sans"
       x="42.273113"
       y="545.08484"
       id="text3954"
       sodipodi:linespacing="125%"><tspan
         sodipodi:role="line"
         id="tspan3956"
         x="42.273113"
         y="545.08484"></tspan></text>
    <path
       sodipodi:type="arc"
       style="fill:#aa0000;fill-opacity:1;stroke:#aa0000;stroke-width:4;stroke-linecap:round;stroke-linejoin:round;stroke-miterlimit:4;stroke-opacity:1;stroke-dasharray:none"
       id="path4092"
       sodipodi:cx="144.05261"
       sodipodi:cy="473.43375"
       sodipodi:rx="114.69849"
       sodipodi:ry="49.467125"
       d="m 258.7511,473.43375 a 114.69849,49.467125 0 1 1 -229.396974,0 114.69849,49.467125 0 1 1 229.396974,0 z"
       transform="matrix(0.84099238,0,0,0.91547223,257.84229,-50.5208)" />
    <path
       sodipodi:type="arc"
       style="fill:#d5e5ff;fill-opacity:1;stroke:none"
       id="path3999"
       sodipodi:cx="119.9734"
       sodipodi:cy="314.69437"
       sodipodi:rx="113.22791"
       sodipodi:ry="99.736931"
       d="m 233.20131,314.69437 a 113.22791,99.736931 0 1 1 -226.4558266,0 113.22791,99.736931 0 1 1 226.4558266,0 z"
       transform="matrix(1.5918782,0,0,1.8072028,188.82118,-168.42363)" />
    <path
       style="fill:#ecc963;fill-opacity:1;stroke:#ecc963;stroke-width:0.91399437px;stroke-linecap:butt;stroke-linejoin:miter;stroke-opacity:1"
       d="m 484.1236,650.38686 c -88.8875,9.32771 -211.24498,-0.54868 -211.24498,-0.54868 0,0 1.97351,-5.71108 9.72004,-7.2008 0,0 50.65041,-14.59923 69.42086,-50.35247 0,0 16.08896,-29.19848 14.3013,-66.44143 l 26.81492,-0.29794 c 0,0 -0.59589,49.75658 16.98279,72.99619 0,0 24.13343,31.87997 52.73603,39.03061 0,0 30.02446,10.73187 21.26904,12.81452 z"
       id="path3907"
       inkscape:connector-curvature="0" />
    <rect
       style="fill:#ecc963;fill-opacity:1;stroke:#ecc963;stroke-width:21.25007439;stroke-linecap:butt;stroke-linejoin:miter;stroke-miterlimit:4;stroke-opacity:1;stroke-dasharray:none"
       id="rect3905"
       width="25.110289"
       height="12.576096"
       x="367.24908"
       y="505.51218"
       ry="6.2880478" />
    <path
       sodipodi:type="arc"
       style="fill:#ecc963;fill-opacity:1;stroke:#ecc963;stroke-width:20;stroke-linecap:butt;stroke-linejoin:miter;stroke-miterlimit:4;stroke-opacity:1;stroke-dasharray:none"
       id="path3903"
       sodipodi:cx="402.12274"
       sodipodi:cy="565.36932"
       sodipodi:rx="54.559368"
       sodipodi:ry="41.929886"
       d="m 456.68211,565.36932 a 54.559368,41.929886 0 1 1 -109.1153,-0.47031 l 54.55593,0.47031 z"
       sodipodi:start="0"
       sodipodi:end="3.1528095"
       transform="matrix(1.4336595,0,0,2.0237084,-197.32928,-748.95436)" />
    <rect
       style="fill:#ecc963;fill-opacity:1;stroke:#ecc963;stroke-width:0.09139944;stroke-linecap:butt;stroke-linejoin:miter;stroke-miterlimit:4;stroke-opacity:1;stroke-dasharray:none"
       id="rect3982"
       width="1.1376525"
       height="0.35004693"
       x="570.98663"
       y="316.17407" />
    <g
       id="g4266">
      <path
         transform="matrix(5.8641826,0,0,1.7052135,-1606.5362,-306.41553)"
         sodipodi:open="true"
         sodipodi:end="6.2831853"
         sodipodi:start="3.1415927"
         d="m 322.37532,400.28479 a 16.265301,19.635588 0 0 1 32.53061,0"
         sodipodi:ry="19.635588"
         sodipodi:rx="16.265301"
         sodipodi:cy="400.28479"
         sodipodi:cx="338.64062"
         id="path4094"
         style="fill:#aa0000;fill-opacity:1;stroke:none"
         sodipodi:type="arc" />
      <path
         sodipodi:type="arc"
         style="fill:#aa0000;fill-opacity:1;stroke:none"
         id="path4116"
         sodipodi:cx="338.64062"
         sodipodi:cy="400.28479"
         sodipodi:rx="16.265301"
         sodipodi:ry="19.635588"
         d="m 322.37532,400.28479 a 16.265301,19.635588 0 0 1 32.53061,0"
         sodipodi:start="3.1415927"
         sodipodi:end="6.2831853"
         sodipodi:open="true"
         transform="matrix(5.8641826,0,0,-1.7052135,-1606.5362,1058.1474)" />
    </g>
    <path
       sodipodi:type="arc"
       style="fill:#ffffff;fill-opacity:1;stroke:#ffffff;stroke-width:20;stroke-linecap:butt;stroke-linejoin:miter;stroke-miterlimit:4;stroke-opacity:1;stroke-dasharray:none"
       id="path3914"
       sodipodi:cx="407.53021"
       sodipodi:cy="473.57642"
       sodipodi:rx="63.277481"
       sodipodi:ry="51.666935"
       d="m 470.80769,473.57642 a 63.277481,51.666935 0 1 1 -126.55496,0 63.277481,51.666935 0 1 1 126.55496,0 z"
       transform="matrix(1.0170167,0,0,-1.1006197,-35.287221,827.77022)" />
    <path
       style="fill:#ececec;fill-opacity:1;stroke:#ececec;stroke-width:0.18753378000000001;stroke-linecap:butt;stroke-linejoin:miter;stroke-miterlimit:4;stroke-opacity:1;stroke-dasharray:none"
       d="m 375.10481,264.5234 0,15.06131 -19.105,0 0,8.20461 19.105,0 0,60.77266 8.14602,0 0,-60.77266 19.10498,0 0,-8.20461 -19.10498,0 0,-15.06131 -8.14602,0 z"
       id="rect3978"
       inkscape:connector-curvature="0" />
  </g>
</svg>
