<?xml version="1.0" encoding="iso-8859-1"?>
<!-- Generator: Adobe Illustrator 19.0.0, SVG Export Plug-In . SVG Version: 6.00 Build 0)  -->
<svg version="1.1" id="Capa_1" xmlns="http://www.w3.org/2000/svg" xmlns:xlink="http://www.w3.org/1999/xlink" x="0px" y="0px"
	 viewBox="0 0 512.005 512.005" style="enable-background:new 0 0 512.005 512.005;" xml:space="preserve">
<circle style="fill:#A5E5F9;" cx="256.003" cy="256.023" r="255.983"/>
<g>
	<path style="fill:#CDF3F9;" d="M478.886,334.807c-29.904-0.104-54.185-0.188-83.925-0.292
		c-11.305-0.039-20.588,9.178-20.627,20.485c-0.039,11.305,9.178,20.588,20.484,20.627l23.084,0.08
		c3.057,0.011,4.74,3.444,2.99,5.95c-9.44,13.515,0.237,32.18,17.255,32.239c4.271,0.015,11.302,0.039,19.302,0.067
		c16.318-20.783,29.495-44.152,38.803-69.4C492.761,338.886,486.575,334.833,478.886,334.807z"/>
	<path style="fill:#CDF3F9;" d="M70.294,183.506c-34.516-0.12-45.374-0.158-59.783-0.208C3.19,208.057-0.585,234.592,0.106,262.492
		c10.128,0.035,11.05,0.038,28.452,0.099c17.021,0.059,26.823-18.54,17.478-32.119c-1.733-2.518-0.026-5.939,3.031-5.929
		l21.085,0.073c11.305,0.039,20.588-9.178,20.627-20.485C90.817,192.828,81.599,183.546,70.294,183.506z"/>
	<path style="fill:#CDF3F9;" d="M429.79,149.748c0.039-11.306-9.178-20.588-20.484-20.627c-18.676-0.065-10.327-0.036-21.085-0.073
		c-3.057-0.011-4.74-3.444-2.99-5.95c9.439-13.514-0.233-32.18-17.255-32.239c-3.374-0.012-27.314-0.095-31.019-0.108
		c-17.021-0.059-26.823,18.54-17.478,32.118c1.733,2.518,0.026,5.94-3.031,5.929c-10.757-0.037-2.427-0.008-21.085-0.073
		c-11.305-0.039-20.588,9.178-20.627,20.485c-0.039,11.305,9.178,20.588,20.484,20.627c33.608,0.117,80.819,0.281,113.941,0.396
		C420.468,170.271,429.75,161.053,429.79,149.748z"/>
</g>
<path style="fill:#FDD36E;" d="M290.252,22.91l-18.037-0.063c-1.354-0.005-2.448-1.106-2.444-2.461l0.062-17.854
	c0.005-1.354-1.089-2.456-2.444-2.461L246.388,0c-1.354-0.005-2.456,1.089-2.461,2.444l-0.062,17.854
	c-0.005,1.354-1.106,2.448-2.461,2.444l-18.037-0.063c-1.354-0.005-2.456,1.089-2.461,2.444l-0.073,21.003
	c-0.005,1.354,1.089,2.456,2.444,2.461l18.037,0.063c1.354,0.005,2.448,1.106,2.444,2.461l-0.171,49.365
	c-0.005,1.354,1.089,2.456,2.444,2.461l21.003,0.073c1.354,0.005,2.456-1.089,2.461-2.444l0.172-49.365
	c0.005-1.354,1.106-2.448,2.461-2.444l18.037,0.063c1.354,0.005,2.456-1.089,2.461-2.444l0.073-21.003
	C292.7,24.016,291.606,22.915,290.252,22.91z"/>
<path style="fill:#FBB659;" d="M256.873,4.47c0.008-2.439,2.011-4.427,4.449-4.418L246.388,0c-1.354-0.005-2.456,1.089-2.461,2.444
	l-0.062,17.854c-0.005,1.354-1.106,2.448-2.461,2.444l-18.037-0.063c-1.354-0.005-2.456,1.089-2.461,2.444l-0.073,21.003
	c-0.005,1.354,1.089,2.456,2.444,2.461l18.037,0.063c1.354,0.005,2.448,1.106,2.444,2.461l-0.171,49.365
	c-0.005,1.354,1.089,2.456,2.444,2.461l10.501,0.036L256.873,4.47z"/>
<path style="fill:#F7E6E2;" d="M248.787,144.483c4.597-3.107,10.625-3.086,15.2,0.053l27.009,18.536l0.187-53.731
	c0.019-5.386-4.332-9.766-9.717-9.784l-49.845-0.173c-5.386-0.019-9.766,4.332-9.785,9.717l-0.187,53.73L248.787,144.483z"/>
<path style="fill:#FAD2C8;" d="M248.922,109.195c0.019-5.386,4.4-9.735,9.785-9.717l-27.085-0.094
	c-5.386-0.019-9.766,4.332-9.785,9.717l-0.187,53.73c0.544-0.368-4.443,3.004,27.149-18.355L248.922,109.195z"/>
<path style="fill:#F7E6E2;" d="M84.21,342.498l-0.358,102.964c45.244,41.139,105.291,66.307,171.257,66.537
	c65.967,0.229,126.187-24.521,171.717-65.346l0.358-102.963l-171.07-120.588L84.21,342.498z"/>
<g>
	<path style="fill:#FAD2C8;" d="M111.274,323.701l-27.063,18.797l-0.358,102.964c8.474,7.705,17.469,14.851,26.924,21.378
		L111.274,323.701z"/>
	<path style="fill:#FAD2C8;" d="M359.697,490.116c11.127-4.938,21.832-10.654,32.058-17.065l0.535-153.96l-31.92-22.5
		L359.697,490.116z"/>
</g>
<path style="fill:#FE6782;" d="M449.78,340.346l-89.349-61.317l-0.113,32.665l74.187,50.912c2.321,1.593,4.962,2.361,7.579,2.37
	c4.315,0.015,8.563-2.036,11.188-5.863C457.491,352.967,455.927,344.564,449.78,340.346z"/>
<path style="fill:#F9587B;" d="M151.412,278.303l-89.773,60.694c-6.176,4.176-7.797,12.568-3.622,18.744
	c2.6,3.845,6.833,5.924,11.147,5.939c2.617,0.009,5.265-0.741,7.596-2.317l74.537-50.395L151.412,278.303z"/>
<path style="fill:#F7E6E2;" d="M146.596,225.384l-0.909,261.678c33.148,15.854,70.238,24.8,109.424,24.937
	c39.185,0.136,76.338-8.552,109.595-24.176l0.909-261.678L256.364,151.17L146.596,225.384z"/>
<path style="fill:#FAD2C8;" d="M178.373,247.458l109.964-74.346l-31.973-21.942l-109.769,74.214l-0.909,261.678
	c8.722,4.172,17.725,7.851,26.96,11.032l0.839-241.471C173.498,252.948,175.328,249.517,178.373,247.458z"/>
<path style="fill:#69739B;" d="M255.771,322.157c-22.463-0.078-40.736,18.068-40.814,40.531l-0.507,145.928
	c13.24,2.164,26.816,3.334,40.661,3.382c13.845,0.048,27.429-1.027,40.684-3.099l0.507-145.928
	C296.38,340.508,278.234,322.235,255.771,322.157z"/>
<path style="fill:#505E93;" d="M255.771,322.157c-22.463-0.078-40.736,18.068-40.814,40.531l-0.507,145.928
	c13.24,2.164,26.816,3.334,40.661,3.382l0,0L255.771,322.157z"/>
<path style="fill:#58AF5C;" d="M117.94,471.607c39.591,25.406,86.644,40.216,137.171,40.392
	c50.528,0.176,97.682-14.307,137.449-39.437L117.94,471.607z"/>
<path style="fill:#469B46;" d="M214.482,498.954L214.482,498.954c0.026-7.502,6.185-13.617,13.686-13.591l140.642,0.489
	c8.169-4.019,16.097-8.455,23.748-13.29l-274.619-0.954c30.067,19.295,64.44,32.469,101.367,37.772
	C216.35,506.861,214.468,503.117,214.482,498.954z"/>
<path style="fill:#FE6782;" d="M96.65,258.65c-4.176-6.177-2.555-14.569,3.622-18.744l148.532-100.423
	c4.597-3.107,10.625-3.086,15.2,0.053l147.832,101.452c6.148,4.219,7.71,12.621,3.492,18.769
	c-4.217,6.147-12.619,7.711-18.768,3.491l-140.251-96.249l-140.914,95.273C109.254,266.423,100.852,264.864,96.65,258.65z"/>
<path style="fill:#F9587B;" d="M256.394,167.058l17.73-11.987c2.794-1.888,6.116-2.614,9.32-2.194l-19.44-13.34
	c-4.575-3.139-10.603-3.16-15.2-0.053L100.272,239.907c-6.177,4.176-7.797,12.568-3.622,18.744
	c4.198,6.208,12.596,7.776,18.744,3.622l140.914-95.273L256.394,167.058z"/>
<path style="fill:#66BD6D;" d="M411.792,459.129L98.8,458.042c13.357,10.408,27.773,19.519,43.062,27.148l226.68,0.788
	C383.884,478.453,398.364,469.444,411.792,459.129z"/>
<circle style="fill:#FAD2C8;" cx="256.033" cy="246.303" r="31.533"/>
<path style="fill:#F4BFB5;" d="M251.586,246.283c0.044-12.567,7.434-23.389,18.089-28.419c-4.097-1.969-8.683-3.082-13.532-3.099
	c-17.415-0.061-31.582,14.008-31.642,31.423c-0.06,17.415,14.008,31.582,31.423,31.643c4.848,0.017,9.442-1.064,13.553-3.005
	C258.857,269.724,251.542,258.85,251.586,246.283z"/>
<path style="fill:#58AF5C;" d="M214.576,471.943c0.024-6.878,5.207-12.575,11.849-13.458L98.8,458.042
	c13.357,10.408,27.773,19.519,43.062,27.148l84.469,0.293C219.696,484.553,214.552,478.819,214.576,471.943z"/>
<g>
</g>
<g>
</g>
<g>
</g>
<g>
</g>
<g>
</g>
<g>
</g>
<g>
</g>
<g>
</g>
<g>
</g>
<g>
</g>
<g>
</g>
<g>
</g>
<g>
</g>
<g>
</g>
<g>
</g>
</svg>
